<svg xmlns="http://www.w3.org/2000/svg" viewBox="0 0 100 100" width="100%" height="100%">
  <rect width="100" height="100" rx="24" fill="#2563eb"/>
  <g fill="none" stroke="#ffffff" stroke-width="5" stroke-linecap="round" stroke-linejoin="round">
    <rect x="42" y="16" width="16" height="6" rx="2" fill="none"/>
    <path d="M38 22 h24 v44 h-24 z" />
    <path d="M26 38 h12 v28 h-12 z" />
    <path d="M62 38 h12 v28 h-12 z" />
    <path d="M45 66 v-10 h10 v10" />
    <line x1="22" y1="66" x2="78" y2="66" />
    <rect x="30" y="44" width="4" height="4" fill="#ffffff" stroke="none" />
    <rect x="30" y="52" width="4" height="4" fill="#ffffff" stroke="none" />
    <rect x="66" y="44" width="4" height="4" fill="#ffffff" stroke="none" />
    <rect x="66" y="52" width="4" height="4" fill="#ffffff" stroke="none" />
    <path d="M50 30 v12 M44 33 l12 6 M44 39 l12 -6" stroke="#ffffff" stroke-width="3.5" />
  </g>
</svg>
